<svg width="288" height="210" viewBox="0 0 288 210" fill="none" xmlns="http://www.w3.org/2000/svg">
<path d="M90 173.5V1H103.5L138.5 21L176.5 1H189V173.5L159 208V41L138.5 61L119.5 41V208L90 173.5Z" fill="url(#paint0_linear_10_62)" stroke="black"/>
<path d="M200 165.5V1H229.5V53L258.5 30.5V1H287V70.5L258.5 100V62L229.5 89.5V133L200 165.5Z" fill="url(#paint1_linear_10_62)" stroke="black"/>
<path fill-rule="evenodd" clip-rule="evenodd" d="M1 1V69.5L30.5 101.5V63.5L52 77.5V128L79 159.5V1H1ZM31 25H54V58L31 42V25Z" fill="url(#paint2_linear_10_62)"/>
<path d="M1 69.5H0.5V69.6953L0.632378 69.8389L1 69.5ZM1 1V0.5H0.5V1H1ZM30.5 101.5L30.1324 101.839L31 102.78V101.5H30.5ZM30.5 63.5L30.7728 63.081L30 62.5778V63.5H30.5ZM52 77.5H52.5V77.2289L52.2728 77.081L52 77.5ZM52 128H51.5V128.185L51.6204 128.325L52 128ZM79 159.5L78.6204 159.825L79.5 160.852V159.5H79ZM79 1H79.5V0.5H79V1ZM54 25H54.5V24.5H54V25ZM31 25V24.5H30.5V25H31ZM54 58L53.7145 58.4105L54.5 58.9569V58H54ZM31 42H30.5V42.2613L30.7145 42.4105L31 42ZM1.5 69.5V1H0.5V69.5H1.5ZM30.8676 101.161L1.36762 69.1611L0.632378 69.8389L30.1324 101.839L30.8676 101.161ZM30 63.5V101.5H31V63.5H30ZM52.2728 77.081L30.7728 63.081L30.2272 63.919L51.7272 77.919L52.2728 77.081ZM52.5 128V77.5H51.5V128H52.5ZM79.3796 159.175L52.3796 127.675L51.6204 128.325L78.6204 159.825L79.3796 159.175ZM78.5 1V159.5H79.5V1H78.5ZM1 1.5H79V0.5H1V1.5ZM54 24.5H31V25.5H54V24.5ZM54.5 58V25H53.5V58H54.5ZM30.7145 42.4105L53.7145 58.4105L54.2855 57.5895L31.2855 41.5895L30.7145 42.4105ZM30.5 25V42H31.5V25H30.5Z" fill="black"/>
<defs>
<linearGradient id="paint0_linear_10_62" x1="139.5" y1="1" x2="139.5" y2="208" gradientUnits="userSpaceOnUse">
<stop offset="0.369792" stop-color="#EFDF9A"/>
<stop offset="0.973958" stop-color="#EF9F9A"/>
</linearGradient>
<linearGradient id="paint1_linear_10_62" x1="243.5" y1="1" x2="243.5" y2="165.5" gradientUnits="userSpaceOnUse">
<stop offset="0.333333" stop-color="#EFDF9A"/>
<stop offset="1" stop-color="#EF9F9A"/>
</linearGradient>
<linearGradient id="paint2_linear_10_62" x1="40" y1="1" x2="40" y2="159.5" gradientUnits="userSpaceOnUse">
<stop offset="0.166667" stop-color="#EFDF9A"/>
<stop offset="1" stop-color="#EF9F9A"/>
</linearGradient>
</defs>
</svg>
